<svg width="28" height="23" viewBox="0 0 28 23" fill="none" xmlns="http://www.w3.org/2000/svg">
<g clip-path="url(#clip0_432_1930)">
<path d="M12.4739 21.5H11.0959C8.74789 21.5 7.57389 21.5 6.75989 20.794C5.94489 20.089 5.74589 18.899 5.34689 16.519L4.14289 9.33998C3.96089 8.25498 3.86989 7.71298 4.16189 7.35698C4.45289 7.00098 4.98889 7.00098 6.05989 7.00098H20.8879C21.9589 7.00098 22.4949 7.00098 22.7859 7.35698C23.0779 7.71298 22.9859 8.25498 22.8049 9.34098L22.2739 12.5" stroke="white" stroke-width="1.5" stroke-linecap="round"/>
<path d="M18.9741 7C18.9741 5.54131 18.3947 4.14236 17.3632 3.11091C16.3318 2.07946 14.9328 1.5 13.4741 1.5C12.0154 1.5 10.6165 2.07946 9.58503 3.11091C8.55358 4.14236 7.97412 5.54131 7.97412 7" stroke="white" stroke-width="1.5"/>
</g>
<defs>
<clipPath id="clip0_432_1930">
<rect width="27" height="22" fill="white" transform="translate(0.973633 0.5)"/>
</clipPath>
</defs>
</svg>
