<svg width="12" height="13" viewBox="0 0 12 13" fill="none" xmlns="http://www.w3.org/2000/svg">
<path d="M0.11706 2.65073C1.17841 1.50081 2.41925 0.722927 3.83958 0.317073C5.27553 -0.105691 6.70366 -0.105691 8.124 0.317073C9.55994 0.722927 10.8086 1.50081 11.8699 2.65073C12.026 2.81984 12.0416 3.01431 11.9168 3.23415L10.91 4.98439C10.832 5.11968 10.7071 5.18732 10.5354 5.18732C10.4886 5.18732 10.4418 5.17886 10.395 5.16195L8.35812 4.27415C8.18643 4.2065 8.10059 4.06276 8.10059 3.84293C8.10059 3.82602 8.10059 3.81756 8.10059 3.81756L8.24106 2.29561C6.74268 1.70374 5.24431 1.70374 3.74594 2.29561L3.88641 3.81756C3.88641 3.81756 3.88641 3.82602 3.88641 3.84293C3.88641 4.06276 3.80056 4.2065 3.62888 4.27415L1.59202 5.16195C1.5452 5.17886 1.49837 5.18732 1.45155 5.18732C1.27986 5.18732 1.155 5.11968 1.07696 4.98439L0.0702363 3.23415C0.0234121 3.14959 0 3.06504 0 2.98049C0 2.8452 0.0390202 2.73528 0.11706 2.65073ZM2.24756 7.82537C2.24756 8.02829 2.15391 8.12976 1.96662 8.12976H1.03013C0.842835 8.12976 0.749187 8.02829 0.749187 7.82537V6.81073C0.749187 6.60781 0.842835 6.50634 1.03013 6.50634H1.96662C2.15391 6.50634 2.24756 6.60781 2.24756 6.81073V7.82537ZM4.49512 7.82537C4.49512 8.02829 4.40147 8.12976 4.21418 8.12976H3.27769C3.0904 8.12976 2.99675 8.02829 2.99675 7.82537V6.81073C2.99675 6.60781 3.0904 6.50634 3.27769 6.50634H4.21418C4.40147 6.50634 4.49512 6.60781 4.49512 6.81073V7.82537ZM6.74268 7.82537C6.74268 8.02829 6.64904 8.12976 6.46174 8.12976H5.52525C5.33796 8.12976 5.24431 8.02829 5.24431 7.82537V6.81073C5.24431 6.60781 5.33796 6.50634 5.52525 6.50634H6.46174C6.64904 6.50634 6.74268 6.60781 6.74268 6.81073V7.82537ZM8.99024 7.82537C8.99024 8.02829 8.8966 8.12976 8.7093 8.12976H7.77282C7.58552 8.12976 7.49187 8.02829 7.49187 7.82537V6.81073C7.49187 6.60781 7.58552 6.50634 7.77282 6.50634H8.7093C8.8966 6.50634 8.99024 6.60781 8.99024 6.81073V7.82537ZM11.2378 7.82537C11.2378 8.02829 11.1442 8.12976 10.9569 8.12976H10.0204C9.83308 8.12976 9.73943 8.02829 9.73943 7.82537V6.81073C9.73943 6.60781 9.83308 6.50634 10.0204 6.50634H10.9569C11.1442 6.50634 11.2378 6.60781 11.2378 6.81073V7.82537ZM3.37134 10.2605C3.37134 10.4634 3.27769 10.5649 3.0904 10.5649H2.15391C1.96662 10.5649 1.87297 10.4634 1.87297 10.2605V9.24585C1.87297 9.04293 1.96662 8.94146 2.15391 8.94146H3.0904C3.27769 8.94146 3.37134 9.04293 3.37134 9.24585V10.2605ZM5.6189 10.2605C5.6189 10.4634 5.52525 10.5649 5.33796 10.5649H4.40147C4.21418 10.5649 4.12053 10.4634 4.12053 10.2605V9.24585C4.12053 9.04293 4.21418 8.94146 4.40147 8.94146H5.33796C5.52525 8.94146 5.6189 9.04293 5.6189 9.24585V10.2605ZM7.86646 10.2605C7.86646 10.4634 7.77282 10.5649 7.58552 10.5649H6.64904C6.46174 10.5649 6.36809 10.4634 6.36809 10.2605V9.24585C6.36809 9.04293 6.46174 8.94146 6.64904 8.94146H7.58552C7.77282 8.94146 7.86646 9.04293 7.86646 9.24585V10.2605ZM10.114 10.2605C10.114 10.4634 10.0204 10.5649 9.83308 10.5649H8.8966C8.7093 10.5649 8.61565 10.4634 8.61565 10.2605V9.24585C8.61565 9.04293 8.7093 8.94146 8.8966 8.94146H9.83308C10.0204 8.94146 10.114 9.04293 10.114 9.24585V10.2605ZM2.24756 12.6956C2.24756 12.8985 2.15391 13 1.96662 13H1.03013C0.842835 13 0.749187 12.8985 0.749187 12.6956V11.681C0.749187 11.478 0.842835 11.3766 1.03013 11.3766H1.96662C2.15391 11.3766 2.24756 11.478 2.24756 11.681V12.6956ZM8.99024 12.6956C8.99024 12.8985 8.8966 13 8.7093 13H3.27769C3.0904 13 2.99675 12.8985 2.99675 12.6956V11.681C2.99675 11.478 3.0904 11.3766 3.27769 11.3766H8.7093C8.8966 11.3766 8.99024 11.478 8.99024 11.681V12.6956ZM11.2378 12.6956C11.2378 12.8985 11.1442 13 10.9569 13H10.0204C9.83308 13 9.73943 12.8985 9.73943 12.6956V11.681C9.73943 11.478 9.83308 11.3766 10.0204 11.3766H10.9569C11.1442 11.3766 11.2378 11.478 11.2378 11.681V12.6956Z" fill="white"/>
</svg>
