<svg width="24" height="19" viewBox="0 0 24 19" fill="none" xmlns="http://www.w3.org/2000/svg">
<rect y="0.928589" width="24" height="17.1429" rx="4" fill="white"/>
<mask id="mask0_317_2" style="mask-type:luminance" maskUnits="userSpaceOnUse" x="0" y="0" width="24" height="19">
<rect y="0.928589" width="24" height="17.1429" rx="4" fill="white"/>
</mask>
<g mask="url(#mask0_317_2)">
<rect y="0.928589" width="24" height="17.1429" fill="#0A17A7"/>
<path fill-rule="evenodd" clip-rule="evenodd" d="M-1.09929 -0.71405L9.14283 6.19434V-0.214239H14.8571V6.19434L25.0992 -0.71405L26.3774 1.18089L18.2796 6.6429H24V12.3572H18.2796L26.3774 17.8192L25.0992 19.7141L14.8571 12.8057V19.2143H9.14283V12.8057L-1.09929 19.7141L-2.37744 17.8192L5.72032 12.3572H-2.69413e-05V6.6429H5.72032L-2.37744 1.18089L-1.09929 -0.71405Z" fill="white"/>
<path d="M16.0011 6.35618L26.8571 -0.785706" stroke="#DB1F35" stroke-width="1.33333" stroke-linecap="round"/>
<path d="M17.1538 12.6693L26.8857 19.2289" stroke="#DB1F35" stroke-width="1.33333" stroke-linecap="round"/>
<path d="M6.86191 6.33758L-3.28925 -0.503662" stroke="#DB1F35" stroke-width="1.33333" stroke-linecap="round"/>
<path d="M7.96292 12.5899L-3.28925 20.0518" stroke="#DB1F35" stroke-width="1.33333" stroke-linecap="round"/>
<path fill-rule="evenodd" clip-rule="evenodd" d="M0 11.2143H10.2857V18.0714H13.7143V11.2143H24V7.78573H13.7143V0.928589H10.2857V7.78573H0V11.2143Z" fill="#E6273E"/>
</g>
</svg>
