<svg width="1000" height="1000" viewBox="0 0 1000 1000" fill="none"
  xmlns="http://www.w3.org/2000/svg">
  <g clip-path="url(#clip0_17_2)">
    <path d="M1000 0.000115438L5.41308e-06 0L0 1000H1000V0.000115438Z" fill="#EAEAEA"/>
    <path d="M232.348 769.999L238.321 747.675L254.639 764.017L232.348 769.999ZM770 231.566L764.027 253.889L747.709 237.547L770 231.566ZM243.653 755.846L755.868 242.887L758.695 245.718L246.48 758.677L243.653 755.846Z" fill="#E1E1E1"/>
    <path d="M230.783 497.75L250.783 509.297V486.203L230.783 497.75ZM768.827 497.75L748.827 486.203V509.297L768.827 497.75ZM248.783 499.75H750.827V495.75H248.783V499.75Z" fill="#E1E1E1"/>
    <path d="M498.144 768.824L509.691 748.824H486.597L498.144 768.824ZM498.144 230L486.597 250H509.691L498.144 230ZM500.144 750.824V248H496.144V750.824H500.144Z" fill="#E1E1E1"/>
    <path d="M767.652 770L761.691 747.688L745.35 764.006L767.652 770ZM230 231.568L235.961 253.879L252.303 237.561L230 231.568ZM756.349 755.849L244.134 242.892L241.303 245.718L753.518 758.676L756.349 755.849Z" fill="#E1E1E1"/>
    <g opacity="0.5">
      <g opacity="0.5">
        <path d="M499.805 687.335C396.167 687.335 312.153 603.199 312.153 499.412C312.153 395.624 396.167 311.488 499.805 311.488C603.441 311.488 687.455 395.624 687.455 499.412C687.455 603.199 603.441 687.335 499.805 687.335Z" fill="#FAFAFA"/>
        <path d="M499.805 687.335C396.167 687.335 312.153 603.199 312.153 499.412C312.153 395.624 396.167 311.488 499.805 311.488C603.441 311.488 687.455 395.624 687.455 499.412C687.455 603.199 603.441 687.335 499.805 687.335Z" stroke="#C9C9C9" stroke-width="2.418"/>
      </g>
      <path d="M499.805 577.574C456.698 577.574 421.754 542.58 421.754 499.412C421.754 456.243 456.698 421.249 499.805 421.249C542.91 421.249 577.854 456.243 577.854 499.412C577.854 542.58 542.91 577.574 499.805 577.574Z" fill="white"/>
      <mask id="mask0_17_2" style="mask-type:luminance" maskUnits="userSpaceOnUse" x="473" y="472" width="54" height="55">
        <path d="M473.234 472.803H526.374V526.02H473.234V472.803Z" fill="white"/>
      </mask>
      <g mask="url(#mask0_17_2)">
        <path fill-rule="evenodd" clip-rule="evenodd" d="M521.392 481.117H478.217V503.368L483.097 498.479L483.827 497.749H496.282L496.383 497.647L508.007 486.006H511.53L521.392 495.884V481.117ZM499.808 501.274L504.887 506.362L506.649 508.126L503.126 511.654L501.365 509.889L494.223 502.738H485.891L478.317 510.322L478.217 510.423V514.379C478.217 515.261 478.567 516.107 479.19 516.731C479.813 517.354 480.657 517.705 481.538 517.705H518.071C518.952 517.705 519.797 517.354 520.42 516.731C521.042 516.107 521.392 515.261 521.392 514.379V502.939L509.768 491.298L499.905 501.175L499.808 501.274ZM473.234 508.76V514.379C473.234 515.471 473.449 516.552 473.866 517.561C474.283 518.57 474.895 519.487 475.666 520.259C476.438 521.031 477.353 521.643 478.361 522.061C479.368 522.479 480.448 522.694 481.538 522.694H518.071C519.162 522.694 520.241 522.479 521.249 522.061C522.256 521.643 523.172 521.031 523.943 520.259C524.714 519.487 525.325 518.57 525.743 517.561C526.16 516.552 526.374 515.471 526.374 514.379V504.602L528.237 502.738L526.476 500.973L526.374 500.873V476.128H473.234V508.357L473.034 508.558L473.234 508.76Z" fill="#666666"/>
      </g>
      <path d="M499.805 577.574C456.698 577.574 421.754 542.58 421.754 499.412C421.754 456.243 456.698 421.249 499.805 421.249C542.91 421.249 577.854 456.243 577.854 499.412C577.854 542.58 542.91 577.574 499.805 577.574Z" stroke="#C9C9C9" stroke-width="2.418"/>
    </g>
  </g>
  <defs>
    <clipPath id="clip0_17_2">
      <rect width="1000" height="1000" fill="white"/>
    </clipPath>
  </defs>
</svg>
